<?xml version="1.0" standalone="no"?>
<!DOCTYPE svg PUBLIC "-//W3C//DTD SVG 20010904//EN"
 "http://www.w3.org/TR/2001/REC-SVG-20010904/DTD/svg10.dtd">
<svg version="1.0" xmlns="http://www.w3.org/2000/svg"
 width="339.000000pt" height="800.000000pt" viewBox="0 0 339.000000 800.000000"
 preserveAspectRatio="xMidYMid meet">

<g transform="translate(0.000000,800.000000) scale(0.100000,-0.100000)"
fill="#000000" stroke="none">
<path d="M1530 7983 c-173 -17 -379 -71 -528 -139 -168 -77 -352 -224 -465
-371 -26 -34 -77 -112 -113 -173 -55 -94 -74 -116 -117 -145 -106 -67 -102
-55 -105 -310 -2 -137 1 -239 8 -263 6 -25 25 -53 49 -75 85 -77 210 -76 294
2 l40 38 9 129 c14 193 7 305 -26 385 -14 36 -26 74 -26 85 0 27 72 156 132
236 151 204 423 366 720 429 143 31 361 31 504 0 283 -59 544 -193 718 -367
123 -122 256 -335 256 -409 0 -17 -10 -58 -22 -91 -18 -50 -22 -81 -22 -199
-1 -77 3 -179 8 -227 13 -132 -4 -158 -161 -236 -114 -58 -189 -73 -394 -80
-164 -6 -189 -9 -208 -26 -30 -27 -28 -71 4 -92 42 -27 190 -39 325 -26 196
20 366 82 501 183 30 22 82 56 116 75 79 45 169 141 180 192 12 58 8 373 -6
414 -11 34 -43 67 -121 127 -19 14 -49 60 -77 114 -102 203 -273 409 -442 530
-276 199 -712 322 -1031 290z"/>
<path d="M1570 7674 c-391 -59 -659 -241 -795 -538 -161 -352 -51 -770 277
-1054 196 -171 414 -246 708 -246 167 0 197 4 393 62 122 35 128 38 125 62 -3
23 -8 25 -72 32 -86 8 -164 27 -193 45 -28 19 -46 74 -38 116 23 103 70 128
247 126 218 -2 400 39 449 101 48 61 74 181 73 345 -1 125 -3 149 -28 225 -35
105 -70 175 -134 265 -173 245 -451 412 -756 454 -74 10 -202 13 -256 5z"/>
<path d="M865 5692 c-90 -27 -155 -67 -257 -156 -198 -174 -399 -424 -482
-600 -86 -180 -119 -328 -119 -526 -1 -124 3 -161 26 -251 54 -218 152 -392
317 -563 217 -224 419 -329 600 -311 112 11 186 55 221 130 25 55 23 110 -6
173 -31 67 -96 131 -213 211 -123 84 -218 187 -275 298 -58 113 -77 188 -77
305 0 104 17 177 57 246 39 66 49 43 35 -80 -16 -134 -15 -180 3 -275 19 -101
80 -225 148 -299 28 -31 103 -96 167 -144 63 -48 138 -112 166 -142 51 -53 94
-123 94 -151 0 -17 61 -27 164 -27 39 0 123 -11 186 -25 122 -26 600 -125 605
-125 1 0 -4 26 -11 58 -38 155 17 247 255 428 150 113 218 201 267 344 17 48
19 81 17 253 -2 130 1 197 8 197 18 0 68 -122 79 -194 6 -38 8 -89 5 -115 -31
-239 -135 -404 -351 -557 -154 -109 -213 -189 -214 -287 0 -62 19 -105 63
-144 45 -39 92 -53 182 -53 175 0 330 78 503 250 105 106 165 189 232 325 116
234 155 491 109 720 -54 265 -228 570 -461 807 -189 192 -277 244 -435 258
-136 13 -672 29 -1148 35 -366 5 -405 4 -460 -13z"/>
<path d="M1375 3458 c-77 -27 -134 -102 -135 -177 0 -73 53 -143 129 -169 144
-50 297 73 261 209 -28 104 -154 172 -255 137z"/>
<path d="M2094 3273 c-12 -56 -11 -55 -67 -48 l-52 7 -16 -76 -15 -75 53 -11
c57 -12 56 -10 37 -82 -4 -13 6 -19 46 -27 70 -15 67 -16 75 29 7 43 13 46 77
31 l36 -9 16 70 c20 90 21 85 -16 93 -71 14 -70 13 -63 60 l7 43 -52 11 c-28
6 -53 11 -55 11 -3 0 -7 -12 -11 -27z"/>
<path d="M2550 3245 c-63 -7 -116 -13 -117 -14 -2 -1 -3 -36 -3 -80 0 -131
-41 -211 -131 -257 -77 -39 -149 -41 -317 -9 -87 16 -155 24 -174 20 -17 -4
-60 -35 -100 -71 -41 -38 -99 -78 -145 -101 l-77 -38 -130 0 c-126 0 -142 3
-393 63 -144 34 -267 62 -274 62 -9 0 -11 -279 -6 -1268 5 -1243 6 -1269 26
-1326 60 -170 215 -240 484 -216 156 14 223 51 265 150 39 93 42 178 42 1225
0 556 3 1034 6 1063 l7 52 233 0 234 0 2 -1097 3 -1098 27 -57 c75 -160 256
-251 437 -220 139 24 218 68 257 145 9 17 25 71 35 121 18 86 19 161 19 1467
0 757 -3 1404 -6 1438 l-7 61 -41 -1 c-23 -1 -93 -8 -156 -14z"/>
<path d="M684 3214 c-4 -15 -4 -85 -1 -157 5 -119 8 -132 29 -153 25 -26 143
-65 363 -121 121 -31 156 -36 260 -36 128 0 200 17 266 63 32 23 73 95 64 110
-13 20 -65 40 -161 59 -144 30 -212 67 -312 170 l-84 86 -209 3 -208 3 -7 -27z"/>
</g>
</svg>
